
      <svg
        xmlns="http://www.w3.org/2000/svg"
        viewBox="0 0 24 24"
        fill="currentColor"
        className="w-full text-black h-full"
      >
        <path
          fillRule="evenodd"
          d="M18.685 19.097A9.723 9.723 0 0021.75 12c0-5.385-4.365-9.75-9.75-9.75S2.25 6.615 2.25 12a9.723 9.723 0 003.065 7.097A9.716 9.716 0 0012 21.75a9.716 9.716 0 006.685-2.653zm-12.54-1.285A7.486 7.486 0 0112 15a7.486 7.486 0 015.855 2.812A8.224 8.224 0 0112 20.25a8.224 8.224 0 01-5.855-2.438zM15.75 9a3.75 3.75 0 11-7.5 0 3.75 3.75 0 017.5 0z"
          clipRule="evenodd"
        />
      </svg>

      <svg
        xmlns="http://www.w3.org/2000/svg"
        fill="none"
        viewBox="0 0 24 24"
        strokeWidth={1.5}
        stroke="rgba(156 ,163 ,175 ,0.5) "
        className="w-2/5 absolute text-gray-500 h-2/5 bottom-1 right-1"
      >
        <path
          strokeLinecap="round"
          strokeLinejoin="round"
          d="M12 9v6m3-3H9m12 0a9 9 0 11-18 0 9 9 0 0118 0z"
        />
      </svg>